<svg xmlns="http://www.w3.org/2000/svg" xmlns:xlink="http://www.w3.org/1999/xlink" width="1141" height="166" viewBox="0 0 1141 166" fill="none"><defs><rect id="path_0" x="0" y="0" width="1141" height="150" /><linearGradient id="linear_0" x1="50%" y1="0%" x2="51%" y2="244.21300000000002%" gradientUnits="objectBoundingBox"><stop offset="0" stop-color="#5009C0" stop-opacity="1" /><stop offset="1" stop-color="#FF6351" stop-opacity="1" /></linearGradient></defs><g opacity="1" transform="translate(0 0)  rotate(0 570.5 83)"><g opacity="1" transform="translate(0 8)  rotate(0 570.5 75)"><mask id="bg-mask-0" fill="white"><use xlink:href="#path_0"></use></mask><g mask="url(#bg-mask-0)" ><g opacity="1" transform="translate(0 0)  rotate(0 570.5 74.69850000000001)"><g opacity="1" transform="translate(196.23700000000008 0.5)  rotate(0 401.65400000000005 74.44850000000001)"><path id="分组 3" fill-rule="evenodd" style="fill:#4D1DB5" transform="translate(0 0)  rotate(0 401.65400000000005 74.44850000000001)" opacity="1" d="M250.69 123.688L250.69 25.218C250.69 20.088 246.33 15.758 241.18 15.758L165.07 15.758C159.92 15.758 155.56 20.088 155.56 25.218L155.56 123.688C155.56 128.808 159.92 133.138 165.07 133.138L241.18 133.138C246.33 133.138 250.69 128.808 250.69 123.688L250.69 123.688Z M165.075 0C151.125 0 139.705 11.35 139.705 25.21L139.705 123.68C139.705 137.55 151.125 148.9 165.075 148.9L241.175 148.9C255.125 148.9 266.545 137.55 266.545 123.68L266.545 25.21C266.545 11.35 255.125 0 241.175 0L165.075 0Z M0 148.897L15.85 148.897L15.85 80.427C15.85 75.277 20.22 70.947 25.37 70.947L126.84 70.947L126.84 55.147L25.37 55.147C11.41 55.147 0 66.527 0 80.427L0 148.897Z M126.84 14.71L126.84 0L0 0L0 14.71L126.84 14.71Z M597.43 148.9L597.43 0L582.72 0L582.72 148.9L597.43 148.9Z M615.808 0L615.808 148.9L709.558 148.9L709.558 133.14L631.438 133.14L631.428 0L615.808 0Z M394.062 15.759L308.452 15.759C303.302 15.759 298.942 20.089 298.942 25.219L298.942 55.889L384.562 55.889C384.742 55.889 384.922 55.909 385.102 55.919C390.012 55.619 394.062 51.429 394.062 46.489L394.062 15.759Z M283.098 148.9L298.948 148.9L298.948 71.7L384.548 71.7C384.738 71.7 384.918 71.68 385.108 71.67C390.088 71.96 394.068 76.07 394.068 81.1L394.068 148.9L409.928 148.9L409.928 81.1C409.928 74.38 407.258 68.29 402.948 63.77C407.258 59.25 409.918 53.17 409.918 46.49L409.918 46.49L409.918 0L308.458 0C294.508 0 283.088 11.35 283.088 25.22L283.088 71.7L283.098 71.7L283.098 148.9Z M777.94 56.54L701.84 56.54C696.69 56.54 692.33 52.21 692.33 47.09L692.33 17.19L692.18 17.19L692.18 0L676.47 0L676.47 47.09C676.47 60.95 687.89 72.3 701.84 72.3L731.97 72.3L731.97 148.9L747.82 148.9L747.82 72.3L777.94 72.3C791.89 72.3 803.31 60.95 803.31 47.09L803.31 0L787.31 0L787.31 0L787.31 5.83L787.45 5.83L787.45 47.09C787.45 52.21 783.11 56.54 777.94 56.54Z M496.493 50.13L445.873 0L434.693 0L434.683 0.01L424.633 0.01L424.633 148.9L440.363 148.9L440.363 16.69L496.403 72.2L550.453 19.55L550.453 148.9L566.173 148.9L566.173 0.01L559.233 0.01L559.223 0L547.943 0L496.493 50.13Z " /><path id="路径 11" fill-rule="evenodd" style="fill:#4D1DB5" transform="translate(189.33799994164036 60.66199994164043)  rotate(0 13.786500058359593 13.786500058359579)" opacity="1" d="M2.51,25.06C4.12,26.67 6.31,27.57 8.58,27.57L18.99,27.57C21.27,27.57 23.45,26.67 25.06,25.06C26.67,23.45 27.57,21.27 27.57,18.99L27.57,8.58C27.57,6.31 26.67,4.12 25.06,2.51C23.45,0.9 21.27,0 18.99,0L8.58,0C6.31,0 4.12,0.9 2.51,2.51C0.9,4.12 0,6.31 0,8.58L0,18.99C0,21.27 0.9,23.45 2.51,25.06Z " /></g><path id="路径 16" fill-rule="evenodd" fill="url(#linear_0)" transform="translate(1041 0)  rotate(0 50 36)" opacity="1" d="M0,36L0,72L64,72C83.88,72 100,55.88 100,36C100,16.12 83.88,0 64,0L36,0C16.12,0 0,16.12 0,36Z " /><path id="分组 6" fill-rule="evenodd" style="fill:#FFFFFF" transform="translate(1060.4470000000001 17.28000000000001)  rotate(0 30.553126112236896 18.72)" opacity="1" d="M36.4 0.624L27.72 0.624L15.08 24.754L14.98 24.754L9.26 0.624L0 0.624L9.57 37.444L16.07 37.444L36.4 0.624Z M50.444 15.26C50.004 15.63 49.584 15.98 49.164 16.33L33.044 29.17L31.904 37.44L57.594 37.44L58.524 30.58L42.204 30.58L54.734 20.96C56.324 19.74 57.674 18.38 58.784 16.87C59.894 15.37 60.624 13.43 60.974 11.08C61.214 9.24 61.124 7.63 60.714 6.24C60.294 4.85 59.624 3.7 58.684 2.78C57.744 1.86 56.584 1.17 55.204 0.7C53.814 0.23 52.284 0 50.624 0C48.824 0 47.114 0.23 45.504 0.7C43.894 1.17 42.454 1.87 41.184 2.81C39.924 3.74 38.834 4.91 37.934 6.32C37.034 7.72 36.394 9.38 36.014 11.28L43.764 11.86C44.034 10.54 44.644 9.43 45.584 8.53C46.514 7.63 47.714 7.18 49.164 7.18C50.384 7.18 51.384 7.53 52.184 8.24C52.984 8.95 53.294 9.93 53.124 11.18C53.054 11.73 52.874 12.26 52.604 12.74C52.324 13.22 52.004 13.67 51.634 14.09C51.274 14.51 50.874 14.9 50.444 15.26Z " /></g></g></g><g opacity="1" transform="translate(3 0)  rotate(0 89 83)"><text><tspan x="0" y="132" font-size="142" line-height="0" fill="#000000" opacity="1" font-family="HarmonyOSSansTC-Regular" letter-spacing="0" >🔥</tspan></text></g></g></svg>